<?xml version="1.0" encoding="utf-8"?>
<!-- Generator: Adobe Illustrator 19.2.1, SVG Export Plug-In . SVG Version: 6.00 Build 0)  -->
<svg version="1.1" id="Layer_1" xmlns="http://www.w3.org/2000/svg" xmlns:xlink="http://www.w3.org/1999/xlink" x="0px" y="0px"
	 viewBox="0 0 340 170" style="enable-background:new 0 0 340 170;" xml:space="preserve">
<style type="text/css">
	.st0{fill-rule:evenodd;clip-rule:evenodd;fill:#F86449;}
</style>
<g>
	<path class="st0" d="M184.2,82.3c1.2,0,2.5-1,3-2.1c0.4-1.2-0.2-2.1-1.4-2.1c-1.2,0-2.5,0.9-3,2.1C182.4,81.3,183,82.3,184.2,82.3
		L184.2,82.3z M214.1,100.8c0,1.4,0.8,2.4,1.6,2.8c1.8,1,5.2-1.4,6.7-2.4c0.8-0.5,1.5-1.1,2.1-1.7l0,0c2.5-2.5,3-2.4,3-2.4
		s-0.9,2-0.9,3.8c0,2,0.8,2.9,2.5,2.9c1.6,0,5.4-2,8.2-4.8c2.8-2.7,3.6-2.8,3.6-2.8s-0.2,0.7-0.2,2c0,1.3-0.2,6.5,7.4,6.5
		c8.3,0,14.4-7,14.4-7l-0.5-0.3c0,0-6.6,6.1-13.6,6.1c-4.2,0-5-2.8-3.9-6.2c1.8-5.5,7.3-11.7,13.1-13c2-0.5,4.3-0.1,3.6,2.5
		c-0.3,1.2-1.3,2.9-3.6,4.4v1c0,0,6-2,6-6.3c0-2-1.7-2.9-3.8-2.9c-2.2,0-7,1-12.6,5.3c-2.6,2-4.6,4.3-6.9,6.5
		c-1.7,1.7-6.8,6.6-9.8,7.5c-1.8,0.6-2.8-0.3-2.1-2c0.3-0.9,1.1-2.1,3-4.2c2.9-3.1,9.9-10.8,9.9-10.8s-1.4-1.5-4.6-1.5
		c-3.3,0-11.9,2-18.2,8.3c-5.9,5.9-11.1,10.7-13.7,10.4c-3.1-0.2-4-2-3.9-3.9c2.4-1.6,4.8-3.3,7-4.9c5.4-4.2,11-8.9,14.5-14.9
		c1.7-2.9,2.8-6-0.3-6c-2.2,0-8.3,3.1-15.1,9.8c-6.8,6.8-8.6,11-8.6,15.3c0,0.3,0.1,0.7,0.1,0.9c-3.6,2.2-7,3.7-9.9,3.7
		c-3.7,0-4.7-1.9-4.6-3.9c6.8-4.4,14.3-10.4,19.6-16.6c1.1-1.3,6.4-9.2,1.5-9.2c-2.1,0-8.3,3.1-15,9.8c-6.8,6.8-8.6,11-8.6,15.3
		c0,0.3,0,0.7,0.1,1c-3.6,2.2-7.1,3.6-10,3.6c-1.3,0-1.6-0.5-1.6-2c0-1.9,1.7-4.4,3.3-6.1c1.7-1.6,9.8-10.1,9.8-10.1H179
		c0,0-1.8,1.9-3.7,3.9c-1.4,1.5-2.9,3.1-3.9,4c-3,3.1-9.9,10.4-13.8,10.4c-1.7,0-1.2-2.2-0.7-3.2c2.9-5.7,11.2-13.6,16-18.2
		c3.5-3.4,7.6-7.3,7.6-7.3h-3.8c-7.4,7.1-10.5,10.2-10.7,10.4c0,0-1.2-0.7-3.3-0.7c-2.2,0-9.1,0.9-16.5,8.3
		c-7.4,7.4-11.1,10.7-13.3,10.7c-1.4,0-1.1-1.3-0.6-2.6c2.5-5.6,8.7-10.5,12.8-14.9c0,0-0.9-1-2.9-1.3c-5.7-1.1-12.7,2.1-17.5,6
		c-1.3,1-2.5,2.3-3.7,3.4c-5,4.4-20.1,16.7-31.2,16.7c-5.4,0-8.2-2.4-8.2-8.2c0-4.2,3-10,9.3-17.1c2.1,0,4.2-0.1,6.3-0.2
		c11.1-0.8,25.3-4.2,36.4-9.8c4.8-2.4,11.8-6.3,14.5-11.1c2.1-3.7-0.1-6.8-4.5-6.8c-13.6,0-42.1,11.9-56.8,26.5
		C80,83.3,72.7,82,72.7,75.2c-0.1-8.2,17.6-15.9,34.1-15.9l-0.3-1c0,0-23.9,0.2-34.6,11c-2,2-3.3,3.9-3.3,6.5
		c0,2.4,0.3,7.8,17.1,8.9c-5,5.2-8.2,10.9-8.2,16.3c0,5.1,2.8,9.8,12,9.8c12.8,0,29.5-14.3,29.5-14.3c0,0.9-0.9,2.4-0.9,4.4
		c0,1.9,0.8,2.9,2.5,2.9c3.8,0,7.4-4.2,10.4-6.3c-0.4,1.1-0.8,1.9-0.8,3.6c0,1.6,0.9,2.7,2.8,2.7c1.7,0,5.3-2.1,8.4-5.2
		c1.4-1.5,1.8-1.6,1.8-1.6c-0.7,2-1.3,6.8,1.8,6.8c1.7,0,4.3-1.2,8-4.9c2-2,2.8-2,2.8-2c0,0.2-0.1,0.5-0.2,0.8
		c-0.5,1.5-1,2.9-0.5,4.5c0.3,0.9,1,1.6,2.4,1.6c2.3,0,5.8-2.2,8.4-4.9c2.7-2.7,2.8-2,2.8-2c0,0.8-0.6,1-0.6,2.8
		c0,1.6,0.1,4.1,3.8,4.1c2.3,0,6-1.6,9.9-3.8c0.9,2.8,3.9,3.8,6.7,3.8h0.5c2.2,0,5.9-1.6,9.8-3.8c0.9,2.7,3.7,3.7,6.2,3.8
		c2.9,0.1,10.1-7.5,10.1-6.5C215,98.6,214.1,98.7,214.1,100.8L214.1,100.8z M143.3,57.9c5.6,0,5,4,2,7.1c-0.9,0.9-2.1,1.9-3.5,2.9
		c-9,6.3-27.6,13.8-43.5,15.3c-2,0.2-4,0.3-6,0.3c1.4-1.4,2.6-2.8,4.1-4.1C106.7,70.5,130.2,57.9,143.3,57.9L143.3,57.9z
		 M128.7,97.9c-2.1,2.1-6.1,5.1-7.8,5.1c-0.3,0-0.8-0.5-0.8-1.2c0-2.9,4.3-7.1,7.8-10.7c3.6-3.6,8.9-6,10.9-6c1.3,0,1.7,0.1,1.7,0.7
		C140.5,86.8,130.9,95.7,128.7,97.9L128.7,97.9z M145.6,102.7c-3.3,0,1.7-6.8,2.4-7.4c2-2,9.6-10.2,14.1-10.2c1.2,0,2,0.5,2,0.7
		c0,0.5-0.2,1-1.8,2.5c-1.5,1.6-2.9,3.4-4.8,5.3C155.4,95.7,148.3,102.7,145.6,102.7L145.6,102.7z M193.3,82.7
		c2.9-2.9,8.4-8.6,11.4-8.6c1.8,0,1.6,3.1-6,10.5c-3.3,3.4-9,8.7-14.6,12.6C185,92.2,189.9,86.2,193.3,82.7L193.3,82.7z M201.4,96
		c1.3-3.7,5.6-10,8.9-13.3c2.6-2.6,7.2-7.4,10.3-8.4c1.7-0.6,2.7,0.2,1.8,2.1c-0.7,1.5-2.5,4.1-6.6,8.3c-3.3,3.4-9,8.7-14.8,12.6
		C201.2,97,201.3,96.5,201.4,96L201.4,96z M224.1,91c2.5-2.5,5.9-4.5,8.4-5.4c0.6-0.2,3.4-1.1,4.1-0.3c0.4,0.5-0.1,1-0.4,1.4
		c-2.1,2.5-9.5,9.2-11.3,11.1c-2.2,2.1-6.1,5.1-7.8,5.1c-0.5,0-0.8-0.5-0.8-1.2C216.3,98.9,220.5,94.6,224.1,91L224.1,91z
		 M266.6,100c1.3,0.1,2.3-0.9,2.3-2.2c0-1.2-1-2.2-2.3-2.2c-1.2,0-2.2,1-2.2,2.2C264.4,99,265.5,100.1,266.6,100L266.6,100z
		 M266.6,95.9c1,0,2,0.8,2,1.9s-0.9,2-2,2c-1,0-1.8-0.9-1.8-2S265.6,95.9,266.6,95.9L266.6,95.9z M266,98h0.6c0.6,0,0.7,0,0.7,0.6
		c0,0.2,0,0.3,0,0.5h0.3c0-0.1,0-0.2,0-0.2v-0.1v-0.1v-0.1c0-0.2-0.1-0.3-0.2-0.6c0,0,0,0-0.1-0.1c0.2-0.1,0.3-0.2,0.3-0.5
		c0-0.5-0.3-0.7-0.9-0.7h-1V99h0.3V98L266,98z M266,96.8h0.7c0.3,0,0.6,0.2,0.6,0.5c0,0.2-0.2,0.3-0.7,0.3H266V96.8L266,96.8z"/>
</g>
</svg>
