<?xml version="1.0" encoding="utf-8"?>
<!-- Generator: Adobe Illustrator 19.2.1, SVG Export Plug-In . SVG Version: 6.00 Build 0)  -->
<svg version="1.1" id="Layer_1" xmlns="http://www.w3.org/2000/svg" xmlns:xlink="http://www.w3.org/1999/xlink" x="0px" y="0px"
	 viewBox="0 0 340 170" style="enable-background:new 0 0 340 170;" xml:space="preserve">
<style type="text/css">
	.st0{fill:#F86449;}
</style>
<g>
	<path class="st0" d="M115.8,71.2H99.4c-2.9,0-5.2,2.3-5.2,5.2v17.2c0,2.9,2.3,5.2,5.2,5.2h16.4c2.9,0,5.2-2.3,5.2-5.2V76.4
		C121,73.6,118.7,71.2,115.8,71.2 M113.1,87l3.7,11l-8.9-6.9l-8.6,6.9l3.4-10.7l-7.9-6h9.9l3.1-9.8l3.3,9.8h9.3L113.1,87z"/>
	<path class="st0" d="M179.6,98.9c-3.3,0-6.1-2.7-6.1-6.1V77.3c0-3.3,2.7-6.1,6.1-6.1h15v7.4h-13v2.7h13v7.4h-13v2.7h13v7.4
		L179.6,98.9"/>
	<path class="st0" d="M146.2,77.3c0-3.3-2.7-6.1-6.1-6.1h-16.5v27.6h8V78.7h6.6v20.2h8V77.3"/>
	<path class="st0" d="M77.3,98.9c-3.3,0-6.1-2.7-6.1-6.1V77.3c0-3.3,2.7-6.1,6.1-6.1H92v7.4H79.2v12.8H92v7.4H77.3"/>
	<path class="st0" d="M145.9,71.2h8.3l5.5,16.8l5.6-16.8h8.3l-9.3,27.6H155L145.9,71.2"/>
	<path class="st0" d="M239,98.9c3.3,0,6.1-2.7,6.1-6.1v-5.4c0-3.3-2.7-6.1-6.1-6.1l-8.4,0v-2.7h13.5v-7.4h-15.4
		c-3.3,0-6.1,2.7-6.1,6.1v5.4c0,3.3,2.7,6.1,6.1,6.1h8.5v2.7h-14.6v7.4L239,98.9"/>
	<path class="st0" d="M268.5,98.9l-15,0c-3.3,0-6.1-2.7-6.1-6.1V77.3c0-3.3,2.7-6.1,6.1-6.1h15v7.4h-13v2.7h13v7.4h-13v2.7h13V98.9"
		/>
	<path class="st0" d="M215.9,88.4c2.3-0.9,3.9-3.1,3.9-5.7v-5.4c0-3.3-2.7-6.1-6.1-6.1h-16.2v27.6h8V83.2l7.2,15.7h8.1L215.9,88.4
		 M205.5,78.6h6.6v2.7h-6.6V78.6z"/>
	<path class="st0" d="M275.2,72.5c-0.5-0.5-1.2-0.8-1.9-0.8c-0.8,0-1.4,0.3-1.9,0.8c-0.5,0.5-0.8,1.2-0.8,1.9c0,0.8,0.3,1.4,0.8,1.9
		c0.5,0.5,1.2,0.8,1.9,0.8c0.8,0,1.4-0.3,1.9-0.8c0.5-0.5,0.8-1.2,0.8-1.9C276,73.6,275.7,73,275.2,72.5 M274.9,76.1
		c-0.5,0.5-1,0.7-1.7,0.7c-0.7,0-1.2-0.2-1.7-0.7c-0.5-0.5-0.7-1-0.7-1.7c0-0.6,0.2-1.2,0.7-1.7c0.5-0.5,1-0.7,1.7-0.7
		c0.7,0,1.2,0.2,1.7,0.7c0.5,0.5,0.7,1,0.7,1.7C275.6,75,275.4,75.6,274.9,76.1z"/>
	<path class="st0" d="M274.5,75.8c0,0,0-0.1,0-0.2c0-0.1,0-0.2,0-0.2v-0.2c0-0.2-0.1-0.3-0.2-0.5c-0.1-0.2-0.3-0.3-0.5-0.3
		c0.2,0,0.3-0.1,0.4-0.1c0.2-0.1,0.3-0.3,0.3-0.6c0-0.4-0.2-0.6-0.5-0.8c-0.2-0.1-0.4-0.1-0.8-0.1h-1v3h0.5v-1.2h0.4
		c0.3,0,0.5,0,0.6,0.1c0.2,0.1,0.3,0.3,0.3,0.7v0.2l0,0.1c0,0,0,0,0,0c0,0,0,0,0,0L274.5,75.8L274.5,75.8 M273.6,74.3
		c-0.1,0-0.3,0.1-0.5,0.1h-0.5v-1.1h0.5c0.3,0,0.5,0,0.6,0.1c0.1,0.1,0.2,0.2,0.2,0.4C274,74,273.9,74.2,273.6,74.3z"/>
</g>
</svg>
