<?xml version="1.0" encoding="utf-8"?>
<!-- Generator: Adobe Illustrator 19.2.1, SVG Export Plug-In . SVG Version: 6.00 Build 0)  -->
<svg version="1.1" id="Layer_1" xmlns="http://www.w3.org/2000/svg" xmlns:xlink="http://www.w3.org/1999/xlink" x="0px" y="0px"
	 viewBox="0 0 340 170" style="enable-background:new 0 0 340 170;" xml:space="preserve">
<style type="text/css">
	.st0{fill:#F86449;}
</style>
<g>
	<path class="st0" d="M94.3,88.9c-2.1,0.3-4.6,0.7-6.5,1.6c-0.9,0-2.1,1-1.8,2.2c3.7,4.9,9.2,8.1,14.8,9.9c0-5,0.6-9.6,0.6-14.6
		C98.9,88.3,96.5,88.3,94.3,88.9l-2.1-4c3.1-1.3,6.2-1.9,9.2-2.5c0.6-4.6,0.3-9.6,2.5-13.4c2.1,0.7,3.1,2.8,3.4,5l0.3,7.4l0.6,0.4
		c7.1-0.4,14.8,0.3,20.4,5.3c0.9,1.3,1.5,2.8,1.2,4.6c-0.6,1.9-2.7,3.4-4.3,4.4c-1.3,0-2.8-0.3-3.7-0.6c-0.3-1.6,1.5-1.6,2.2-2.8
		c0.3-0.4,0.9-1,0.9-1.5c-4.6-2.5-9.8-2.8-15.1-3.5c-0.9,0-1.6-0.3-2.1,0.4c0,6.2,0,10.9,0.3,16.7c9.5,1.9,20.3,1.3,28-4.9
		c4-3.1,4.6-9,3.1-13.7c-4.9-12.4-17.8-19.2-29.3-23.9c-9.5-3.7-20.6-5.6-31.7-3.7c-0.6,0.3-1.5,0.3-1.8,0.9c0.9,0.6,2.4,0,3.4,1.2
		c0.3,1-1.2,1-1.5,1.3c-1.8-0.3-4,0-4.9-1.6c0.9-1.8,1.5-4.4,3.7-5c19.7-6.2,39.5,1.6,55.2,12.4c6.4,5.2,12,11.8,14.4,19.2
		c1.5,7.2-1.2,13.7-6.8,18c-8.9,6.5-21,7.4-31.8,4.7c-0.3,1.2,0,3.1-1.5,3.7c-0.9,0-2.1,0.3-3.4,0c-1.5-1.6-1.5-4-1.8-6.2
		c-6.5-3.1-13.3-8.1-16.9-14.6c-0.3-1.3,0-2.5,0.9-3.5c2.2-2.1,4.6-3.4,7.1-4.3L94.3,88.9"/>
	<path class="st0" d="M144.7,67.2c0.6-0.9,1.2-2.1,2.1-3.1l2.5,2.2c-0.7,0.6-1.2,1.6-1.5,2.2c-0.3,0.6-0.6,1.8,0,2.5
		c1.8-2.5,4.3-4.9,6.5-7.2c-0.7,0-1.2,0-1.8,0.3c-0.9,0.7-2.2,1.3-3.1,2.2l-2.5-2.2c2.1-2.1,4.9-4.3,7.7-5c3.1-0.6,6.5-0.9,8.6,0.7
		l1.2,1.5c1.2-0.3,2.2,0.6,3.1,0.9c1.9,1.6,1.5,4.1,1,5.9c-1.5,2.8-4,5.2-6.8,7.2l-1.9-3.1c0.9-0.4,1.9-0.7,2.5-1.2
		c1.8-1.3,3.7-3.1,3.4-5.6c-0.6-1.3-2.1-0.9-3.4-0.9c-4,1.2-7.7,5-9.8,8.6c2.4,0.3,4.9,0,7.3-0.9l1.9,3.1c-1.5,0.9-2.8,1.5-4.6,2.1
		c-2.5,0.6-5,0.3-7.4-0.3c-0.3,0.3-0.9,2.1-1.8,2.1c-0.9,0-1.2-0.6-1.9-1.8v-2.8C144,72.8,143.4,69.7,144.7,67.2 M152.7,82.2
		c1.8,0,2.1,2.2,2.4,3.7c0.6,6.9,1.2,13.7,0.9,20.8c-0.9,0.9-2.5,1.3-3.7,0.9c-2.5-0.6-1.9-3.7-2.2-5.8c0-6.2,0-12.1,1-18
		C151.5,83.1,151.7,82.2,152.7,82.2"/>
	<path class="st0" d="M162.2,100.7c2.2,2.5,6.2,1.3,9,1.3c3.1-0.6,7.1-1.3,8.6-3.4c-0.6-2.8-3.4-2.8-5.3-3.4
		c-4.6-0.9-9.5-0.7-14.2-1.5c-0.9-0.4-1.5-1.5-1.8-2.5c0-2.5,1-4.7,3.1-5.9c6.2-3.4,15.7-4.4,22.5-1.5c0.7,0.7,0,1.2,0,1.9
		c-1.2,1.3-3,1.3-4.9,1.5c-5.2,0.6-11.1,0.4-16,2.5c0,0.6,1.2,0.6,1.8,1c5.9,1.8,14.2-1,18.2,5.3c0.9,2.5,0.6,6.2-0.6,8
		c-3.4,3.8-8.9,4.4-13.8,3.8c-3.7-0.9-7.4-2.8-8.7-6.6c-0.3-1.5,0.3-2.7,1.2-3.7c2.7-2.2,6.5-1.5,10.1-1.3c1.9,0.3,4.3,1.3,5.3,1.9
		c0,0.9,0,2.2-4.3,2.8c-2.8,0.3-6.8-3.4-9.8-1.6C161.9,99.5,161.9,100.4,162.2,100.7"/>
	<path class="st0" d="M191.3,84.3c4.6,4.3,7.1,9.9,10.5,14.5c0.9,0,0.3-0.9,0.6-1.2c0-6.6-2.4-11.8-3.4-17.7c0-0.6-0.3-1.5,0.3-1.8
		c1.8,0.3,2.8,2.1,3.7,3.1c3.7,5.2,5.2,11.8,4.6,18.6c-0.7,2.2-1.6,4.9-4,5.9c-0.6,0.6-1.8,0.9-2.5,0.3c-4.6-3.7-6.2-9.3-9.2-14
		l-0.3,0.9l-0.9,13c-0.4,0.9-1,1.8-1.5,1.8c-1.2,0-2.2-0.9-2.8-1.8c-1.3-2.8-0.3-6.5-0.3-9.6c0.6-4.1,1.2-7.8,3.1-11.2
		C189.5,84.3,190.4,83.7,191.3,84.3"/>
	<path class="st0" d="M212.4,91.8c1.5,0,1.5-1.9,2.1-2.8l0.7-1.8c-1.8-0.7-4-1-4.6-3.5c0-0.6,1.2-0.3,1.5-0.6
		c5.2-0.6,10.5-1.8,15.7-1.5c1.8,0.9,3.7,2.5,3.4,4.7c-1.5,1.3-4,1-6.2,1.3h-4.9l-1.2,3.7h0.3c2.5,0,5.3-0.3,7.4,0.7
		c0.7,0.6,0.3,1.9,0.3,2.7c-1.2,1.3-3.4,1-5.2,1c-1.5,0.3-4.3-0.6-4.9,1.6l-0.9,3.7v0.4c3.7-0.4,7.4-1.9,11.1-1.3
		c0.7,0.9,1.2,2.2,0.9,3.1c-4,3.1-8.7,6.2-14.2,5.2c-2.2-0.9-3.7-3.4-4-5.9c-0.3-3.4,3.1-5.8,1.6-9.3
		C210.9,92.1,212.1,92.1,212.4,91.8"/>
	<path class="st0" d="M246.2,95.5c-1.5,2.5-3.1,5-4.3,7.2c2.8,0,5.2-1.3,7.4-3.1c2.4-2.2,3.7-5.3,3.4-8.7c-0.3-0.3-0.3-1.6-1.2-1.3
		C249.3,91.5,247.7,93.6,246.2,95.5l-5-3.4c2.8-3.1,5.6-5.6,8.9-7.5c1.3-0.3,2.5,0,3.4,1c2.2,2.8,3.4,6.2,2.5,9.9
		c-1.5,6.5-7.7,12.4-13.9,13.7l-3.7,0.3c-2.2,6.9-4.3,14-5.6,21.4c-1.8,0.3-4-1.8-4.9-3.7c-0.7-1.6,0-3.5,0-5
		c1.2-5.9,2.4-12.1,4.9-17.4c-0.3-1.2-1-2.1-1.2-3.4c-0.9-6.8,2.5-12.4,6.8-17.4c0.6-0.7,1.5-2.2,2.4-1.9c0.7,5.5-4.9,9.3-5.5,14.9
		c0,1,0,1.5,0.3,2.2c1.8-2.2,3.7-5,5.5-7.2L246.2,95.5"/>
</g>
</svg>
