<?xml version="1.0" encoding="utf-8"?>
<!-- Generator: Adobe Illustrator 19.2.1, SVG Export Plug-In . SVG Version: 6.00 Build 0)  -->
<svg version="1.1" id="Layer_1" xmlns="http://www.w3.org/2000/svg" xmlns:xlink="http://www.w3.org/1999/xlink" x="0px" y="0px"
	 viewBox="0 0 340 170" style="enable-background:new 0 0 340 170;" xml:space="preserve">
<style type="text/css">
	.st0{fill:#F86449;}
</style>
<g>
	<path class="st0" d="M170.1,55C119.6,55,78.6,69.3,78.6,87c0,17.7,41,32.1,91.5,32.1c50.5,0,91.5-14.4,91.5-32.1
		C261.6,69.3,220.7,55,170.1,55 M170.1,116.4c-48.8,0-88.3-13.1-88.3-29.3c0-16.2,39.5-29.3,88.3-29.3c48.8,0,88.3,13.1,88.3,29.3
		C258.4,103.2,218.9,116.4,170.1,116.4z"/>
	<path class="st0" d="M227.1,76.5c0.1-0.2,0-0.4-0.3-0.4c-1.5,0-3.4,0-4.9,0c-0.4,0-0.5,0-0.7,0.4c-0.6,1.1-7.4,11.4-8.7,13.4
		c-0.2,0.3-0.5,0.3-0.5-0.1c-0.1-1.2-1.1-2.6-2.8-3.2c-1.2-0.5-2.4-0.6-3.7-0.4c-2.3,0.3-4.3,1.5-6,2.9c-2.7,2-5,4.7-7.9,6.6
		c-1.6,1.1-3.8,2-5.3,0.6c-1.3-1.3-1.2-4,0.9-6.2c0.2-0.2,0.5,0,0.4,0.2c-0.2,1,0,1.9,0.8,2.6c0.9,0.8,2.2,0.9,3.3,0.4
		c1.3-0.6,2.1-1.9,2.3-3.3c0.3-2.2-1.3-4.1-3.4-4.3c-1.7-0.1-3.3,0.5-4.9,1.8c-0.8,0.7-1.3,1.2-1.9,2.2c-0.2,0.2-0.4,0.3-0.4-0.1
		c0.1-2.8-1.1-4.4-3.4-4.4c-1.8,0-3.7,0.9-5.2,2.1c-1.6,1.3-3.1,3.1-4.6,4.7c-0.2,0.2-0.4,0.2-0.4-0.2c0-1.9-0.5-3.7-1.4-4.9
		c-0.3-0.4-0.9-0.7-1.5-0.4c-0.2,0.1-1.1,0.5-1.7,1c-0.3,0.3-0.4,0.6-0.3,1.1c0.8,2.8,0.6,5.9-0.5,8.6c-1,2.4-3,4.7-5.4,5.4
		c-1.5,0.5-3.2,0.3-4.2-1.1c-1.4-1.9-0.8-5.2,1.2-8c1.8-2.4,4.4-4,7-5c0.3-0.1,0.4-0.3,0.3-0.6c-0.1-0.4-0.4-1-0.5-1.3
		c-0.2-0.6-0.9-0.7-1.7-0.7c-1.9,0.2-3.6,0.9-5.3,1.8c-4.4,2.4-6.6,7-7.6,9.4c-0.5,1.2-0.9,1.9-1.4,2.6c-0.7,0.9-1.6,1.7-3.2,3.1
		c-0.1,0.1-0.2,0.4-0.1,0.6c0.2,0.3,1,1.5,1.2,1.6c0.3,0.1,0.6,0,0.7-0.1c1.1-0.8,2.4-2,3.1-2.8c0.2-0.3,0.5-0.2,0.6,0.3
		c0.6,2.2,2.2,4,4.4,4.7c4,1.4,8.2-0.6,11.4-4.1c2-2.2,2.7-3.6,3.5-4.6c1.3-1.6,3.9-5.3,6.9-7.6c1.1-0.9,2.5-1.5,3.1-1.1
		c0.5,0.3,0.7,1.2-0.2,2.7c-3.1,5.8-7.7,12.5-8.6,14.1c-0.2,0.3,0,0.5,0.3,0.5c1.6,0,3.3,0,4.7,0c0.2,0,0.4-0.1,0.5-0.3
		c2.4-3.8,4.7-7.4,7.1-11.1c0.1-0.2,0.3,0,0.3,0c0,0.9,0.3,2,0.8,2.8c0.9,1.4,2.2,2,3.6,2.1c1.1,0,1.7-0.2,3-0.6
		c1-0.4,1.8-0.9,2.4-1.3c0.4-0.3,0.4,0.2,0.4,0.2c-0.6,3,0.1,6.6,3.1,8c3.5,1.8,7.4-0.7,9.7-2.9c0.2-0.2,0.5-0.2,0.5,0.3
		c0,0.9,0.4,1.9,1.1,2.6c1.9,1.9,5.7,1.1,9.5-1.8c2.4-1.9,5-4.6,7.3-7.4c0.1-0.1,0.1-0.3,0-0.5c-0.4-0.4-0.9-0.8-1.2-1.1
		c-0.2-0.1-0.4-0.1-0.5,0c-2.4,2.3-4.5,4.9-7.6,7c-1,0.7-2.7,1.3-3.4,0.3c-0.3-0.4-0.3-0.9,0-1.7C212.2,99.6,226.4,77.8,227.1,76.5
		 M208.3,94.8c0,0.2,0.2,0.3,0.5,0.4c0.1,0,0.1,0.1,0,0.3c-0.6,1.3-1.2,2.1-1.9,3.2c-0.7,1-1.5,1.9-2.4,2.6
		c-1.4,1.2-3.4,2.5-5.1,1.6c-0.7-0.4-1-1.4-1-2.2c0-2.3,1.1-4.8,3-7.1c2.3-2.9,4.9-4.4,6.6-3.6c1.7,0.8,1.2,2.9,0.4,4.5
		C208.3,94.6,208.3,94.7,208.3,94.8"/>
	<path class="st0" d="M124.1,107.2c-5.3,0-10-3.3-10.5-9c-0.3-3.2,0.6-6,2.4-8.3c1.6-2.1,4.2-3.8,6.5-4.2c0.7-0.1,1.7,0,2.1,0.4
		c0.6,0.8,0.5,1.6-0.2,1.9c-1.7,0.9-3.8,2.4-4.8,4.5c-0.8,1.7-1,3.7,0.3,5.7c2.1,3.2,8.1,3.3,13.6-1.8c1.4-1.3,2.6-2.5,3.8-3.9
		c2.4-2.8,3.2-3.8,6.5-8.3c0-0.1,0.1-0.1,0-0.2c0-0.1-0.1-0.1-0.2-0.1c-2.2,0.1-4,0.7-5.9,2.1c-0.5,0.4-1.3,0.3-1.6-0.2
		c-0.4-0.6-0.1-1.3,0.5-1.7c2.9-2.1,6.1-2.4,9.4-3c0,0,0.2,0,0.4-0.2c1.3-1.7,2.4-3.3,3.8-5.1c1.4-1.8,3.3-3.4,4.7-4.7
		c2-1.7,3.3-2.3,4.6-3c0.3-0.2,0-0.4-0.1-0.4c-7.2-1.4-14.8-3.1-22-0.5c-5,1.9-7.2,5.9-6.1,8.5c0.7,1.9,3.2,2.2,5.5,1.1
		c1.9-0.9,3.7-2.5,4.9-4.4c0.7-1.1,2.2-0.3,1.4,1.6c-2.1,5-6.1,8.9-11,9.1c-4.2,0.1-6.9-2.9-6.8-6.8c0-7.5,8.3-12.5,17.1-13.2
		c10.5-0.9,20.5,1.9,30.9,3.2c8,1,15.7,1,23.7-0.9c1-0.2,1.6,0.4,1.6,1.4c-0.1,1.4-1.2,2.7-3.8,4.2c-3,1.7-6.2,2.2-9.4,2.2
		c-8,0.1-15.4-3.1-23-4.7c0,0.3,0.1,0.7-0.2,1c-4.2,3.2-8.1,6.4-10.7,10.9c-0.1,0.1,0,0.2,0.1,0.2c2.2-0.1,4.2-0.2,6.3-0.3
		c0.4,0,0.4-0.1,0.3-0.4c-0.2-1.6,0.3-3.3,1.6-4.5c1.4-1.3,3.1-1.4,4.3-0.5c1.3,1,1.2,2.9,0.5,4.3c-0.7,1.4-1.9,2.2-3.1,2.5
		c0,0-0.2,0.1-0.2,0.3c0,0.4,1.6,1.2,1.8,1.5c0.1,0.2,0.1,0.6-0.2,0.8c-0.2,0.2-0.4,0.4-0.8,0.4c-0.3,0-0.4-0.1-0.8-0.3
		c-0.7-0.4-1.6-1-2.2-1.8c-0.2-0.3-0.3-0.3-0.8-0.2c-2.3,0.1-5.8,0.5-8.2,0.8c-0.6,0.1-0.7,0.2-0.8,0.4c-3.8,6.3-7.9,13.1-12.3,17.7
		C132.3,105.9,128.3,107.2,124.1,107.2 M160.3,79.2c0.1,0.3,0.2,0.4,0.3,0.4c0.7-0.1,1.5-0.7,2-1.4c0.4-0.6,0.6-1.5,0.2-1.9
		c-0.4-0.3-1-0.2-1.5,0.2C160.4,77.2,160.2,78.3,160.3,79.2"/>
</g>
</svg>
