<?xml version="1.0" encoding="utf-8"?>
<!-- Generator: Adobe Illustrator 19.2.1, SVG Export Plug-In . SVG Version: 6.00 Build 0)  -->
<svg version="1.1" id="Layer_1" xmlns="http://www.w3.org/2000/svg" xmlns:xlink="http://www.w3.org/1999/xlink" x="0px" y="0px"
	 viewBox="0 0 340 170" style="enable-background:new 0 0 340 170;" xml:space="preserve">
<style type="text/css">
	.st0{fill-rule:evenodd;clip-rule:evenodd;fill:#F86449;}
</style>
<path class="st0" d="M195.8,76.2l-3.8-0.8l2.5,2.8L195.8,76.2z M183,79.4v2.1c0,0,1.3-0.2,1.5-0.3c0.3-0.1,0.8-0.2,0.9-0.8
	c0.1-0.5-0.3-0.9-0.7-1C184.3,79.3,183,79.4,183,79.4z M173,85.2c0,1.1,0.3,1.1,1.1,1c0.8-0.2,1-0.6,1.1-1.2c0-0.6,0-4.7,0-4.7
	l-2.2-1.2C173,79.2,173,84.2,173,85.2z M158,84.5L153,83l4.9,4.8L158,84.5z M195,62.2c0,0,0.6-0.9,1.9-1c1.3-0.1,2,0.8,2,0.8
	l4.5,1.6l-1.3-5.1l-7-3V62.2z M170.6,57.3c-1,0.1-2.8,0.9-4.4,2.1c-1.6,1.2-3.1,3.7-3.3,4.6c-0.2,0.9-0.5,3,0.3,4.5
	c1.3,2.2,3.7,2.7,4.6,2.8c1.2,0.1,3.8,0,6.4-2.2c2.2-1.8,2.8-3.4,3-5.9c0.2-2.1-1-3.9-2.4-5C173.5,57.3,171.6,57.2,170.6,57.3z
	 M123.2,111.1c0,0,0.1-1.1,1.1-1c0.9,0.1,1.7,0.2,2.1,0.3c0.6,0.2,1.6,0.7,0.6,1.4c0,1,0,12,0,12l5.3-0.6c0,0-1.7-0.7-2.3-3.9
	c-0.2-1-0.2-2.6,1.1-4.7c1.3-2,3.9-2.8,4.8-3c0.8-0.1,64.8-7.8,64.8-7.8l11.3,4.5v-1.1c0,0,0-1,1-1c1.5,0,1.6,0,2.4,0
	c1.3,0,1.2,1.2,1.2,1.2l-0.1,11.4l3.5,0.5V45.5h-11.5l5.3,54c0,0-0.1,1-0.8,1.1c-0.6,0.1-0.8-0.5-0.8-0.5l-2.4-8.9l-9.7-3.5
	l-10.1,9.5l8.4,5.4l-8.1,1l-4.6-2.9l-3.6,3.8l-7.7,0.9l6.7-7l-10.4-6l-4.9,0.8c0,0,4.2,1.2,5.9,2.7c1.7,1.4,2,3,1.6,5.4
	c-0.4,2.5-3.1,4.4-3.1,4.4l-15.9,1.9l-1.8-0.9c0,0-2.4-1.2-2.5-3.8c-0.1-2.3,2.5-6,2.5-6l-4-1.2v3.6l-8,1.2v2.8l7-1v3.3l-7.1,1
	l0,2.4l-4.9,0.6V98.5l-1,0.2v-2.4l65.5-11.6l9,3.4l-3-12.3l-6-2.2l-4.2,6.5l-0.1,3.5l-3.2,0.6v-3.5l-2.7-2.7l-3.5-0.8
	c0,0,0.8,0.5,1,0.6c0.9,0.7,1.1,1.4,1.1,2.4c0,1.5-2,2.3-2,2.3l3.3,2.2l-3.4,0.7l-3.8-2l-0.2,2.6l-3,0.5V79l-2.1-0.7
	c0,0,0.1,5.2,0,7.2c0,1.5-1.6,1.9-1.6,1.9s-3.7,1-5,0.6c-1.3-0.4-1.2-1.7-1.2-1.7V81l-1.2-0.8l0,2.3l-2.2,0.5l0,6l-2.8,0.5l0-5.9
	l-2.2,0.4l-0.2-1.5L160,82v8.2l-2.5,0.5l-3.6-3.2l0.1,3.8l-2.5,0.5l-0.2-6.8l-2.2-0.6v1.8l-3,0.9v1.4l3-0.6v1.7l-3,0.6v1.3l3.3-0.5
	l0.1,1.2l-5.8,1l0-5.8c0,0-0.7-0.2-2.5-0.4c0.8,0.6,0.6,1,0.6,1l-1.3,1.3c0,0-0.5-0.7-1.8-0.4c-1,0.2-1.4,1.2-1.4,2.1
	c0,1,0.6,2.2,1.8,2c1.1-0.2,1.7-1.3,1.7-1.3l1.6,0.8l-0.8,1.2c0,0-4.2,0.8-4.8,0.9c-1.4-0.5-1.7-1.7-1.8-2.8
	c-0.1-2.2,1.4-3.6,1.4-3.6l-1.4-0.9v-1.7l65.5-14.5l5.3,2.1l-2.2-8.7l-4.4-1.5l-0.1,6.3l-2,0.4c0,0,0-3.5,0-4.5
	c0-1.6-0.3-1.9-0.9-1.9c-1,0-1.1,0.8-1.1,2.1c0,1.3,0,4.8,0,4.8l-2.3,0.5l0-10.3l-12.9-5.4c0,0,0.6,0.6,1.4,1.5
	c1.6,2,2.4,4.1,1.8,7.8c-0.6,3.7-2.6,6.2-2.6,6.2c-1.4,2.3-4.6,4.5-4.6,4.5s-7.9,1.9-10,2.1c-2.1,0.2-4.9-1.8-6.2-3.1
	c-1.4-1.4-2.1-3.1-2.5-4.8c-0.4-1.8,0.8-6.4,0.8-6.4l-2.9-1.6c0,0,0.5,1.1,0.7,1.7c0.2,0.6,0.6,1.4,0.1,3.6
	c-0.3,1.6-1.2,2.6-1.2,2.6l-6.7,8.4l8.3-1.6v3.3l-19,4.3v-2.2c0,0,11.3-13.1,12-14.1c1-1.4,1.4-2.7,0-3.8c-1.4-1.1-2.8-0.6-4.3,0.6
	c-1.3,1.1-2,3.6-2,3.6l-5.8,1l1.5-4.5c1.7-4,6.9-5.8,9.2-6c1.3-0.2,3.5,0.6,3.5,0.6l7,3.1c0,0,0.2-0.4,0.6-1c1-1.8,5.2-6.4,6.8-7.2
	c2.9-1.4,6-1.9,8.5-1.6c1.6,0.2,5.1,1.6,5.1,1.6l13.7,5.7l0-3.9l2.4-0.8l6.9,2.9L199,45.6l-61.2,0c0,0-10.1,54.8-10.3,56
	c-0.2,0.9-0.6,1.2-1.5,1c-0.8-0.2-0.6-1.5-0.6-1.5l2.4-55.7H119v79.6l4.3-0.6L123.2,111.1z M216,101.4c0,0,0.8,2.4-1.9,2.9
	c-2.1,0.4-2.9-1.8-2.9-1.8L216,101.4z M188,61.7l2-0.5v2.4l1-0.4v1.9c0,0-1,0.3-1,0.5v5.6l-2,0.6V61.7z M123.4,104.1l5.2,0.8
	c0,0,0,2.8-3,2.4C122.7,107,123.4,104.1,123.4,104.1z M220,121.6l-74.6-8.8l-3.5-0.3c0,0-3.5,0.3-6.3,0.8c-2,0.4-4.5,3.4-3.4,6.5
	c1,2.9,5,4.5,5,4.5l-18.2,2.2v2h101V121.6z M188.3,91.9l-9.3-1.5l6.5,4.2L188.3,91.9z M112,38.5v97h115v-97H112z M224,132.5H115v-91
	h109V132.5z M150.5,111.5l61.5,6.7l0-8l-11.7-4.4L150.5,111.5z M156.4,102.5c0.6,0.8,1.6,1.1,3,1.4c1.2,0.3,3.8,0.2,5.5-0.5
	c1.8-0.7,2.5-1.2,3.2-2.2c0.8-1,0.7-2.2-0.5-3.2c-1.2-1-3-1.3-5.3-1.2c-1.9,0.1-4.2,1.2-4.8,1.7C156.4,99.5,155.2,101.1,156.4,102.5
	z"/>
</svg>
