<?xml version="1.0" encoding="utf-8"?>
<!-- Generator: Adobe Illustrator 19.2.1, SVG Export Plug-In . SVG Version: 6.00 Build 0)  -->
<svg version="1.1" id="Layer_1" xmlns="http://www.w3.org/2000/svg" xmlns:xlink="http://www.w3.org/1999/xlink" x="0px" y="0px"
	 viewBox="0 0 340 170" style="enable-background:new 0 0 340 170;" xml:space="preserve">
<style type="text/css">
	.st0{fill:#F86449;}
</style>
<g>
	<path class="st0" d="M243.1,91.1v-5.5l-1.5,0.2c-1.5,0.1-2.7,1.1-2.7,3c0,2.2,1.2,3.1,2.4,3.1C242,91.8,242.7,91.5,243.1,91.1
		 M238.6,77.4l-1.3,4H234v-5.2c1.8-0.6,4.3-1.5,7.6-1.5c5.1,0,7.8,2.1,7.8,6.5v10.7l2.2,1v1.7c-0.6,0.3-2.5,0.8-4,0.8
		c-2,0-3.5-0.7-3.8-2.8h-0.2c-0.8,1.8-3.1,2.8-5.5,2.8c-3.4,0-5.5-2.2-5.5-5.5c0-4,2.6-4.9,6.7-5.8l3.6-0.6v-2.4
		c0-2.5-0.7-3.8-3.2-3.8C239.6,77.3,239,77.3,238.6,77.4"/>
	<path class="st0" d="M174.6,91.1v-5.5l-1.5,0.2c-1.5,0.1-2.7,1.1-2.7,3c0,2.2,1.2,3.1,2.4,3.1C173.5,91.8,174.2,91.5,174.6,91.1
		 M170.1,77.4l-1.3,4h-3.3v-5.2c1.8-0.6,4.3-1.5,7.6-1.5c5.1,0,7.8,2.1,7.8,6.5v10.7l2.2,1v1.7c-0.6,0.3-2.5,0.8-4,0.8
		c-2,0-3.5-0.7-3.8-2.8h-0.2c-0.8,1.8-3.1,2.8-5.5,2.8c-3.4,0-5.5-2.2-5.5-5.5c0-4,2.6-4.9,6.7-5.8l3.6-0.6v-2.4
		c0-2.5-0.7-3.8-3.2-3.8C171.1,77.3,170.5,77.3,170.1,77.4"/>
	<path class="st0" d="M68,89.4V78.5h-2.9v-3l2.9-0.4v-3.7l6.3-0.9v4.6h4.2v3.4h-4.2v10.3c0,1.9,0.5,2.9,2.4,2.9c0.7,0,1.6-0.1,2-0.2
		v2.5c-1,0.6-3.2,1.1-5.2,1.1C69.8,95.3,68,93.6,68,89.4"/>
	<path class="st0" d="M111.5,77.1c1.6,0,2.4,0.7,2.4,5.8l-5.3,0.3C108.7,78.6,109.5,77.1,111.5,77.1 M108.7,85.6h11.3
		c0-8.2-2.7-10.9-8.4-10.9c-5.7,0-9.4,3.8-9.4,10.2c0,6.7,3.4,10.4,9.9,10.4c3.5,0,6.4-1.6,7.2-2.8v-1.9c-1.3,0.4-2.7,0.7-5.1,0.7
		C110.8,91.3,109.1,89.4,108.7,85.6"/>
	<path class="st0" d="M130.4,101.3c-3.5,0-5-0.9-5-2.3c0-1,0.3-1.8,0.9-2.4h7.4c1.6,0,2.8,0.2,2.8,1.7
		C136.5,100.3,134.7,101.3,130.4,101.3 M130.5,77.1c1.4,0,2.3,1,2.3,4.3c0,3.3-0.9,4.1-2.3,4.1c-1.4,0-2.2-0.8-2.2-4.1
		C128.3,78.2,129.2,77.1,130.5,77.1 M134.4,90.7H128c-1,0-1.6-0.6-1.6-1.3c0-0.5,0.1-1.3,0.6-1.7c1,0.3,2.2,0.5,3.5,0.5
		c4.9,0,8.3-2.2,8.3-6.5c0-1.9-0.7-3-1.9-4.1l0.1-0.2l3.3,1v-3.7h-0.4l-4.7,0.9h-0.3c-1.2-0.4-2.9-0.8-4.4-0.8
		c-4.9,0-8.3,2.4-8.3,6.7c0,2.6,1,4.5,3.1,5.6v0.2c-1.7,1.3-3.2,3.1-3.2,4.7c0,1.5,1,3.3,3.1,3.8V96c-1.7,0.6-4.2,1.3-4.2,3.4
		c0,2.6,3.2,4.4,9.2,4.4c7.4,0,10.8-3.1,10.8-7.8C141,92.2,138.6,90.7,134.4,90.7"/>
	<path class="st0" d="M221.2,76v2l2.3,1v12.8l-2.2,1v2h10.8v-2l-2.3-1V74.7h-0.5L221.2,76z"/>
	<path class="st0" d="M183.9,76v2l2.3,1v12.8l-2.3,1v2h11.6v-2l-3.1-1l0-10.7c1.1-0.5,2.5-0.7,4.2-0.7c0.6,0,1.2,0.1,1.6,0.2v-5.7
		c-0.2-0.1-0.6-0.1-0.9-0.1c-2.1,0-3.8,1.4-4.9,4h-0.2v-4.1h-0.5L183.9,76"/>
	<path class="st0" d="M226.7,66.6c1.9,0,3.4,1.5,3.4,3.5c0,1.9-1.5,3.5-3.4,3.5c-1.9,0-3.4-1.6-3.4-3.5
		C223.3,68.2,224.8,66.6,226.7,66.6"/>
	<path class="st0" d="M211.6,71l-2.6-1v-2l8.4-1.3h0.5v24.6l2.2,1.1v1.9l-7.7,0.9l-0.5,0v-2h-0.2c-0.8,1-2.4,2.1-4.8,2.1
		c-3.5,0-7.6-2.3-7.6-9.8c0-7.9,4.2-10.8,9.3-10.8c1,0,2.3,0.2,3.1,0.8V71 M211.6,91.4V78.1c-0.5-0.4-1-0.7-2.2-0.7
		c-2,0-3.5,1.8-3.5,7.4c0,4.9,1.2,7,3.7,7C210.6,91.8,211.2,91.6,211.6,91.4"/>
	<path class="st0" d="M143.6,79l-2.4-1v-2l8.1-1.3h0.5v13.8c0,2.2,1.1,2.6,2.7,2.6c1.2,0,1.6-0.2,2.3-0.5V79l-2.4-1v-2l8.1-1.3h0.5
		v16.8l2.3,1.1v1.7l-7.9,0.9l-0.5,0l0-2.6h-0.2c-1.2,1.6-3.2,2.7-5.8,2.7c-3.8,0-5.5-2.8-5.5-6.2V79"/>
	<path class="st0" d="M79.9,92.8l2.2-1V71l-2.3-1v-2l8.1-1.3h0.5v10.7h0.2c1.7-1.6,4-2.6,6.6-2.6c3.2,0,4.8,1.6,4.8,5.3v11.9l2.3,1
		v2H91.6v-2l2-1V81.7c0-2-0.8-2.7-2.6-2.7c-0.9,0-1.8,0.2-2.6,0.5v12.4l2,1v2H79.9V92.8"/>
	<path class="st0" d="M252.8,92.8l2.2-1V79l-2.3-1v-2l8.1-1.3h0.5v2.6h0.2c1.7-1.6,4-2.6,6.6-2.6c3.2,0,4.8,1.6,4.8,5.3v11.9l2.3,1
		v2h-10.6v-2l2-1V81.7c0-2-0.9-2.7-2.6-2.7c-0.9,0-1.8,0.2-2.6,0.5v12.4l2,1v2h-10.6V92.8"/>
</g>
</svg>
