<?xml version="1.0" encoding="utf-8"?>
<!-- Generator: Adobe Illustrator 19.2.1, SVG Export Plug-In . SVG Version: 6.00 Build 0)  -->
<svg version="1.1" id="Layer_1" xmlns="http://www.w3.org/2000/svg" xmlns:xlink="http://www.w3.org/1999/xlink" x="0px" y="0px"
	 viewBox="0 0 340 170" style="enable-background:new 0 0 340 170;" xml:space="preserve">
<style type="text/css">
	.st0{fill:#F86449;}
</style>
<g>
	<path class="st0" d="M226.9,96.2v-3l3.1-0.3c1-0.2,1.4-1.1,1.6-1.3l7.4-12.2c0.6-0.9,0-1.8-0.8-1.9l-3.9-0.4V74h17
		c1,0,1.6,0.7,2,1.3l9.9,15.2c0.8,1.2,1.4,2.2,2.4,2.3l3.2,0.3v3.1h-19.1v-3l2.4-0.3c1.2-0.1,2.2-0.7,1.2-2.1l-0.9-1.4h-13.6
		l-1.1,1.7c-0.6,1,0,1.7,1,1.8l2.5,0.3v3H226.9 M241.1,85.4h8.6l-4.4-6.8L241.1,85.4z"/>
	<path class="st0" d="M214.2,74h-21.8V77l2.7,0.2c1.1,0.2,1.5,0.9,1.5,1.9c0,1,0,11.1,0,11.9c0,0.9-0.4,1.7-1.3,1.8l-2.9,0.4v2.9
		h21.8c10.1,0,14.5-4.9,14.5-11.4C228.7,78.9,224.4,74,214.2,74 M210.9,91.9h-5.7V78.2h5.7c5.5,0,7.6,1.2,7.6,6.9
		C218.5,90.7,216.3,91.9,210.9,91.9z"/>
	<path class="st0" d="M73.5,96.2h17.8v-3l-3.1-0.3c-0.7-0.1-1.4-0.5-1.4-2v-3.6h13.7v3.4c0,1-0.2,2-1.4,2.1L96,93.1v3.1h17.8v-3.1
		l-3.2-0.3c-0.6-0.1-1.3-0.6-1.3-1.8V79.4c0-1.2,0.4-2,1.4-2.1l3.1-0.3V74H96v3l3.1,0.4c1.1,0.1,1.4,1,1.4,2.1v3.4H86.7v-3.5
		c0-1.3,0.6-1.9,1.5-2l3-0.3V74H73.6V77l3,0.3c1.1,0.1,1.5,1,1.4,2.1v11.3c0,1.3-0.3,2.1-1.5,2.2l-3,0.3V96.2"/>
	<path class="st0" d="M114.5,85c0-7,5.7-11.8,18.2-11.8c12.4,0,18.1,4.9,18.1,11.8c0,7.1-5.7,11.9-18.1,11.9
		C120.2,97,114.5,92.1,114.5,85 M132.7,77.3c-5.1,0-7.9,1.9-7.9,7.7c0,5.9,2.9,7.8,7.9,7.8c5,0,7.8-1.9,7.8-7.8
		C140.5,79.2,137.6,77.3,132.7,77.3z"/>
	<path class="st0" d="M151.7,96.2h14.1v-3l-3-0.3c-0.9-0.1-1.4-0.8-1.4-1.9V79.7l11.7,15.5c0.4,0.6,1.2,0.9,1.9,0.9h11.1V79.3
		c0-0.8,0.2-1.9,1.3-2l3.1-0.3V74h-14.1v3l3.1,0.4c1.1,0.1,1.3,1.1,1.3,2.1v11l-11.6-15.4c-0.5-0.6-1.1-1-1.9-1h-15.6V77l2.9,0.3
		c1.1,0.2,1.5,0.7,1.5,2.1v11.3c0,1.4-0.4,2-1.5,2.2l-2.9,0.3V96.2"/>
</g>
</svg>
