<?xml version="1.0" encoding="utf-8"?>
<!-- Generator: Adobe Illustrator 19.2.1, SVG Export Plug-In . SVG Version: 6.00 Build 0)  -->
<svg version="1.1" id="Layer_1" xmlns="http://www.w3.org/2000/svg" xmlns:xlink="http://www.w3.org/1999/xlink" x="0px" y="0px"
	 viewBox="0 0 340 170" style="enable-background:new 0 0 340 170;" xml:space="preserve">
<style type="text/css">
	.st0{fill:#F86449;}
</style>
<g>
	<path class="st0" d="M113.9,110.8c-4.6-0.2-8.3-1.4-11.3-3.8c-0.6-0.4-1.9-1.8-2.3-2.4c-1.2-1.5-2-3-2.5-4.6
		c-1.7-5-0.8-11.5,2.4-18.7c2.8-6.2,7.1-12.3,14.6-20.7c1.1-1.2,4.4-4.9,4.4-4.9c0,0-0.2,0.3-0.4,0.7c-1.9,3.3-3.6,7.1-4.5,10.5
		c-1.5,5.4-1.3,10,0.5,13.5c1.2,2.5,3.4,4.6,5.8,5.8c4.2,2.1,10.3,2.2,17.8,0.5c0.5-0.1,26.1-6.9,56.8-15.1
		c30.7-8.2,55.8-14.9,55.8-14.9c0,0-71.3,30.6-108.4,46.5c-5.9,2.5-7.4,3.2-10.2,4.1C125.3,109.8,119,111,113.9,110.8"/>
</g>
</svg>
